<svg width="872" height="1000" version="1.1" viewBox="0 0 872 1000" xmlns="http://www.w3.org/2000/svg" fill="#fff" stroke-linejoin="round">
 <path d="m697.6 395.6-220 128.4v257.4l220-128.4z"/>
 <path d="m174.4 395.6v257.3l220 128.4v-257.4l-199.9-116.6z"/>
 <path d="m436 194.4-220.5 128.7 220.5 128.7 220.5-128.7z"/>
 <path d="m436 0.5c-6.311 0-12.62 1.642-18.27 4.919l-399.3 231.5c-11.23 6.515-18.15 18.52-18.15 31.5v463.1c0.002062 12.99 6.917 24.99 18.15 31.5l399.3 231.5c11.3 6.552 25.24 6.552 36.54 0l399.3-231.5c11.23-6.515 18.15-18.52 18.15-31.5v-463.1c-2e-3 -12.99-6.917-24.99-18.15-31.5l-399.3-231.5c-5.65-3.276-11.96-4.919-18.27-4.919zm-7.276 104.7a41.6 41.66 0 0 1 28.21 5.02l303.2 176.9a41.6 41.66 0 0 1 9.878 8.354 41.6 41.66 0 0 1 1.463 1.626 41.6 41.66 0 0 1 6.382 11.1 41.6 41.66 0 0 1 0.5894 1.829 41.6 41.66 0 0 1 2.317 13.5v353.4a41.6 41.66 0 0 1-20.65 36.02l-303.2 176.9a41.6 41.66 0 0 1-1.057 0.3862 41.6 41.66 0 0 1-11.85 4.37 41.6 41.66 0 0 1-1.748 0.2431 41.6 41.66 0 0 1-13.07 0.0393 41.6 41.66 0 0 1-1.037-0.2446 41.6 41.66 0 0 1-12.64-4.573 41.6 41.66 0 0 1-0.3455-0.162 41.6 41.66 0 0 1-0.122-0.0629l-303.2-176.9a41.6 41.66 0 0 1-20.65-36.02v-353.8a41.6 41.66 0 0 1 0.8739-4.939 41.6 41.66 0 0 1 1.077-6.158 41.6 41.66 0 0 1 4.228-9.512 41.6 41.66 0 0 1 2.744-4.797 41.6 41.66 0 0 1 10.49-9.512 41.6 41.66 0 0 1 1.219-1.098l303.2-176.9a41.6 41.66 0 0 1 13.66-5.02z"/>
</svg>
